<svg
 xmlns="http://www.w3.org/2000/svg"
 xmlns:xlink="http://www.w3.org/1999/xlink"
 width="60px" height="60px" viewBox="0 0 60 60">
<path fill-rule="evenodd"  fill="rgb(104, 160, 175)"
 d="M29.998,60.002 C13.429,60.002 -0.004,46.569 -0.004,30.000 C-0.004,13.431 13.429,-0.001 29.998,-0.001 C46.568,-0.001 59.999,13.431 59.999,30.000 C59.999,46.569 46.568,60.002 29.998,60.002 ZM29.998,1.999 C14.534,1.999 1.996,14.535 1.996,30.000 C1.996,45.465 14.534,58.002 29.998,58.002 C45.463,58.002 57.999,45.465 57.999,30.000 C57.999,14.535 45.463,1.999 29.998,1.999 Z"/>
<path fill-rule="evenodd"  fill="rgb(104, 160, 175)"
 d="M18.016,51.611 C18.016,51.611 18.016,40.217 18.016,40.217 C18.016,40.217 23.268,42.037 23.268,42.037 C23.268,42.037 18.016,51.611 18.016,51.611 ZM26.027,41.667 C26.027,41.667 18.585,38.695 18.585,38.695 C18.585,38.695 26.027,34.460 26.027,34.460 C26.027,34.460 26.027,41.667 26.027,41.667 ZM26.027,29.625 C26.027,29.625 5.766,20.058 5.766,20.058 C5.766,20.058 26.027,20.058 26.027,20.058 C26.027,20.058 26.027,29.625 26.027,29.625 ZM26.984,41.533 C26.984,41.533 26.984,20.156 26.984,20.156 C26.984,20.156 34.544,28.469 34.544,28.469 C34.544,28.469 26.984,41.533 26.984,41.533 ZM35.011,13.439 C35.011,13.439 35.011,18.978 35.011,18.978 C35.011,18.978 35.011,26.730 35.011,26.730 C35.011,26.730 31.150,22.336 31.150,22.336 C31.150,22.336 35.011,13.439 35.011,13.439 ZM36.140,17.093 C36.140,17.093 36.140,13.553 36.140,13.553 C36.140,13.553 41.169,17.093 41.169,17.093 C41.169,17.093 36.140,20.633 36.140,20.633 C36.140,20.633 36.140,17.093 36.140,17.093 ZM40.390,19.041 C40.390,19.041 41.936,17.045 41.936,17.045 C41.936,17.045 53.943,19.041 53.943,19.041 C53.943,19.041 40.390,19.041 40.390,19.041 Z"/>
</svg>